<svg xmlns="http://www.w3.org/2000/svg" width="200" height="200" viewBox="0 0 200 200" fill="none">
  <rect width="200" height="200" fill="#175442" rx="40"/>
  <g stroke="#B49964" stroke-width="7" stroke-linecap="round" stroke-linejoin="round">
    <path d="M 30 155 A 72 72 0 0 1 170 155"/>
    <path d="M 100 155 L 100 110"/>
    <path d="M 100 130 L 72 150"/>
    <path d="M 100 130 L 128 150"/>
    <path d="M 100 100 L 58 115"/>
    <path d="M 100 100 L 142 115"/>
    <path d="M 58 115 L 36 106"/>
    <path d="M 142 115 L 164 106"/>
    <circle cx="100" cy="90" r="9"/>
    <path d="M 100 79 L 100 55"/>
    <path d="M 100 62 L 74 50"/>
    <path d="M 100 62 L 126 50"/>
    <path d="M 74 50 L 52 38"/>
    <path d="M 74 50 L 66 32"/>
    <path d="M 126 50 L 148 38"/>
    <path d="M 126 50 L 134 32"/>
    <path d="M 100 55 L 86 40"/>
    <path d="M 100 55 L 114 40"/>
    <path d="M 100 55 L 100 30"/>
  </g>
</svg>
